<svg xmlns="http://www.w3.org/2000/svg" width="101" height="32" viewBox="0 0 101 32" fill="none">
<path d="M93.8527 25.6137H93.3116C93.2804 25.6137 93.2544 25.6085 93.2232 25.6085H84.9801V20.2528H92.4793C92.5157 20.2528 92.5469 20.2476 92.5807 20.2476H93.0463C93.7616 20.2476 94.3391 19.6675 94.3391 18.9548V18.8429C94.3391 18.1302 93.759 17.5502 93.0463 17.5502H89.5374C89.5374 17.5502 89.5165 17.5528 89.5061 17.5528H84.9801V12.3349H92.4247C93.3247 12.3349 93.7747 11.9604 93.7747 11.2138V10.7092C93.7747 9.97569 93.3247 9.61154 92.4247 9.61154H84.9801V8.71935C84.9801 8.12369 84.5379 7.82715 83.6561 7.82715H81.5882C80.6882 7.82715 80.2382 8.20171 80.2382 8.94824V9.61154H77.2052L77.4523 9.06269L77.4809 8.92483C77.4809 8.81819 77.4341 8.72715 77.3431 8.64911C77.2338 8.57368 77.122 8.51125 77.0127 8.46703C76.8463 8.40721 76.7084 8.36819 76.5991 8.35258C76.4509 8.32137 76.3312 8.30056 76.2402 8.28495L74.4766 8.03265C74.3465 8.00143 74.2191 7.98583 74.0916 7.98583C73.4673 7.98583 73.0433 8.26155 72.8222 8.81038L70.8922 13.4326C70.8193 13.6017 70.7829 13.7525 70.7829 13.8904C70.7829 14.1349 70.8662 14.3248 71.03 14.4626C71.1965 14.6161 71.4514 14.7306 71.8026 14.806L73.5116 15.0817C73.6572 15.1129 73.7951 15.1285 73.9251 15.1285C74.513 15.1285 74.937 14.8684 75.1945 14.3508L76.2142 12.3375H80.2382V17.5554H75.0463C75.0463 17.5554 75.0254 17.5528 75.015 17.5528H71.5061C70.7907 17.5528 70.2133 18.1328 70.2133 18.8456V18.9574C70.2133 19.6727 70.7933 20.2502 71.5061 20.2502H72.0575C72.0913 20.2502 72.1225 20.2554 72.1589 20.2554H80.2382V25.6111H71.8832C71.852 25.6111 71.826 25.6163 71.7948 25.6163H71.2694C70.5566 25.6163 69.9766 26.1964 69.9766 26.9091V27.0209C69.9766 27.7362 70.5566 28.3137 71.2694 28.3137H71.5477C71.6517 28.3267 71.7636 28.3345 71.8832 28.3345H93.2518C93.3715 28.3345 93.4833 28.3267 93.5874 28.3137H93.8553C94.568 28.3137 95.1481 27.7336 95.1481 27.0209V26.9091C95.1481 26.1938 94.568 25.6163 93.8553 25.6163L93.8527 25.6137Z" fill="#858599"/>
<path d="M61.2671 7.07092L61.433 7.03808C62.5054 6.82573 63.5469 7.52295 63.7593 8.59536L64.5515 12.5963C64.7638 13.6687 64.0666 14.7102 62.9942 14.9225L62.8283 14.9553C61.7559 15.1677 60.7144 14.4705 60.5021 13.398L59.7098 9.39715C59.4975 8.32475 60.1947 7.28326 61.2671 7.07092Z" fill="#858599"/>
<path fill-rule="evenodd" clip-rule="evenodd" d="M60.2579 17.8281H63.4287L63.4261 17.8333C64.3261 17.8333 64.7761 18.2079 64.7761 18.9544L64.7475 26.7344C64.7475 27.0856 64.6279 27.3613 64.3886 27.559C64.1492 27.7567 63.8163 27.8555 63.3949 27.8555L59.6284 27.8685C59.6137 27.8696 59.5993 27.8715 59.5851 27.8734C59.5642 27.8762 59.5434 27.8789 59.5218 27.8789H56.0778C55.3651 27.8789 54.7876 27.3015 54.7876 26.5887V26.4769C54.7876 25.7642 55.3651 25.1867 56.0778 25.1867H56.6033L56.6102 25.1861C56.6649 25.1811 56.7176 25.1763 56.7775 25.1763L58.2368 25.1867H59.5244C59.54 25.1867 59.5549 25.1893 59.5699 25.1919C59.5848 25.1945 59.5998 25.1971 59.6154 25.1971H59.6544C59.9848 25.1997 60.2527 24.9318 60.2527 24.6015V21.1732C60.2527 20.8428 59.9848 20.5775 59.657 20.5775H51.8327C51.5024 20.5775 51.237 20.8454 51.237 21.1758L51.2631 27.8555C51.2631 28.1884 51.1642 28.459 50.9639 28.6697C50.9457 28.6905 50.9223 28.7113 50.8989 28.7295C50.6648 28.909 50.3448 29 49.9417 29H48.0662C47.1662 29 46.7162 28.6254 46.7162 27.8789V21.1732C46.7162 20.8428 46.4483 20.5775 46.1205 20.5775H42.0549C41.9795 20.5775 41.9119 20.5723 41.8442 20.5671H41.298C40.5801 20.5671 40 19.9845 40 19.2692V19.1573C40 18.4394 40.5827 17.8593 41.298 17.8593H41.9535C41.9701 17.8593 41.986 17.8581 42.0023 17.8568C42.0192 17.8555 42.0364 17.8542 42.0549 17.8542H46.1205C46.4509 17.8542 46.7162 17.5862 46.7162 17.2585V12.3163C46.7162 11.986 46.4483 11.7207 46.1205 11.7207H42.0549C42.0432 11.7207 42.0322 11.72 42.0211 11.7194C42.0101 11.7187 41.999 11.7181 41.9873 11.7181H41.298C40.5801 11.7181 40 11.1354 40 10.4201V10.3083C40 9.59036 40.5827 9.01031 41.298 9.01031H41.8052C41.8858 9.00251 41.9691 8.99729 42.0575 8.99729H46.1232C46.4535 8.99729 46.7188 8.72418 46.7188 8.40164C46.7188 8.0791 46.8671 7.87361 47.161 7.78257C47.2885 7.73835 47.4732 7.71494 47.7125 7.71494H50.3605C50.9483 7.71494 51.2422 7.92823 51.2422 8.35482V8.40164C51.2422 8.72938 51.5076 8.99729 51.8353 8.99729L57.5553 9.01811C58.4553 9.01811 58.9053 9.38227 58.9053 10.1158V17.2559C58.9053 17.5862 59.1732 17.8516 59.501 17.8516H60.2579V17.8281ZM53.8616 17.8516C54.166 17.8516 54.4131 17.6044 54.4131 17.3001V12.2669C54.4131 11.9626 54.166 11.7155 53.8616 11.7155H51.7911C51.4868 11.7155 51.2396 11.9626 51.2396 12.2669V17.3001C51.2396 17.6044 51.4868 17.8516 51.7911 17.8516H53.8616Z" fill="#858599"/>
<path d="M8.05859 27.1446C8.05859 27.1446 11.3184 26.7822 11.4996 26.7218C11.6808 26.6614 15.0615 26.8426 15.0615 26.8426L17.2342 27.3862L19.2257 28.111L19.7693 28.2922L22.7271 27.205L26.289 26.6614L28.7033 26.7218L30.5739 26.9634L31.3591 27.205L31.2987 30.4648L29.668 30.042L26.5289 29.8004L24.3562 29.9816L22.4855 30.4044L20.796 30.948L19.5881 31.4312L17.053 30.4648L13.9743 29.8608H10.4125L8.05859 30.2836V27.1446Z" fill="#858599" fill-opacity="0.5"/>
<path d="M19.5787 31.9999C14.0908 28.9782 8.26229 30.7902 8.20357 30.8087L7.5459 31.0184V26.8576L7.89486 26.7452C8.1482 26.663 14.1847 24.7755 20.0636 28.0119L19.5787 28.8944C14.8609 26.2972 9.89306 27.272 8.55255 27.6075V29.6712C10.3041 29.2551 15.2367 28.4581 20.0636 31.1157L19.5787 31.9982V31.9999Z" fill="#858599"/>
<path d="M19.5103 31.9999L19.0254 31.1174C23.8523 28.4599 28.7848 29.2568 30.5364 29.6729V27.6092C29.1976 27.272 24.2281 26.2989 19.5103 28.8961L19.0254 28.0136C24.9042 24.7772 30.9407 26.6647 31.1941 26.7469L31.543 26.8593V31.0218L30.8854 30.8087C30.8283 30.7902 24.9998 28.9783 19.5103 31.9999Z" fill="#858599"/>
<path d="M25.8282 22.5107C25.8299 22.1466 25.7024 21.8346 25.444 21.5628C25.189 21.3044 24.8803 21.1819 24.5246 21.192C24.1606 21.2171 23.8502 21.3631 23.5884 21.6181C23.3334 21.9268 23.2093 22.249 23.211 22.6147C23.2093 22.9654 23.3334 23.2774 23.5834 23.5341C23.8384 23.8059 24.1505 23.9301 24.5196 23.9049C24.8786 23.9066 25.1873 23.7606 25.4407 23.4788C25.699 23.1969 25.8266 22.8731 25.8299 22.509L25.8282 22.5107Z" fill="#858599" fill-opacity="0.5"/>
<path d="M15.6646 23.4805C15.923 23.1986 16.0505 22.8899 16.0488 22.5242C16.0505 22.1601 15.923 21.8212 15.6679 21.536C15.3945 21.3045 15.0891 21.1954 14.7469 21.2055C14.3711 21.2441 14.0607 21.3766 13.8107 21.6048C13.5557 21.8866 13.4282 22.2222 13.4248 22.6013C13.4248 22.9654 13.554 23.2775 13.809 23.5359C14.0556 23.8077 14.366 23.9301 14.7334 23.9066C15.1126 23.8949 15.4196 23.7624 15.6629 23.4805H15.6646Z" fill="#858599" fill-opacity="0.5"/>
<path d="M19.4917 27.1262C18.4834 27.1262 17.4935 27.0423 16.7352 26.8477C14.695 26.3243 13.071 25.3797 11.7707 23.9586C10.4201 22.4805 10.3346 21.0561 10.244 19.5478C10.2322 19.3549 10.2205 19.1586 10.2054 18.959C10.0846 17.2896 9.29605 14.6807 9.28766 14.6555L9.22559 14.4509L9.35142 14.278C10.5124 12.6976 11.9435 11.5685 13.7303 10.8236C15.3712 10.139 17.3241 9.78168 19.7014 9.72967C23.6592 9.49814 27.9744 11.144 29.9642 13.6455L30.09 13.8032L29.1891 18.006C29.179 18.2325 29.1119 19.4153 28.7864 21.8329C28.4039 24.665 24.9058 26.2857 23.1089 26.7454C22.1962 26.9803 20.8255 27.1262 19.49 27.1262H19.4917ZM10.1685 14.6136C10.3631 15.283 10.9503 17.3953 11.0594 18.8952C11.0745 19.0982 11.0862 19.2995 11.098 19.4958C11.1852 20.9655 11.2557 22.1265 12.4016 23.3815C13.586 24.6767 15.0725 25.5408 16.9466 26.0206C18.5354 26.4283 21.3993 26.3025 22.8975 25.9166C24.1877 25.5861 27.6087 24.1851 27.9408 21.7155C28.2915 19.1167 28.3368 17.9439 28.3385 17.9322V17.8953L29.1706 14.0197C27.862 11.5064 27.0852 10.9913 25.4209 10.3639C23.6659 9.70115 21.5268 10.4729 19.7434 10.5786H19.7283C15.1816 10.6776 11.8479 9.21963 10.1668 14.6119L10.1685 14.6136Z" fill="#858599"/>
<path d="M28.4299 14.3451C28.7538 15.1789 28.8913 15.5967 29.195 16.3601C29.195 16.3601 29.9986 15.0699 30.252 14.1471C30.507 13.2143 30.351 12.0264 30.1513 10.9158C29.6497 9.05179 29.2604 8.9075 27.7555 7.80354C27.0877 7.34551 26.3328 6.9395 25.4788 6.58214C23.6316 5.88587 21.776 5.49999 19.9087 5.41946C18.0581 5.38758 16.1908 5.66441 14.3201 6.24659C13.451 6.54858 12.6759 6.91098 11.9897 7.33041C10.4261 8.34209 9.3372 9.7665 8.73153 11.5952C8.56879 12.2831 8.31042 12.9442 8.37417 13.5817C8.6661 16.506 10.5737 17.7895 10.4428 17.0848C10.2734 16.1755 10.3824 15.6386 10.6156 14.7695C11.0586 13.1254 12.1072 11.9107 13.7631 11.1372H13.7681C14.0903 11.0466 15.7227 10.1188 17.8903 11.2278C18.4658 11.4745 19.4725 12.1422 19.9758 12.1271C20.4808 12.112 21.2072 11.6254 21.7357 11.2949C22.729 10.6725 23.6702 10.4594 24.9134 10.8537C26.7203 11.4224 27.8293 12.7076 28.4299 14.3468V14.3451Z" fill="#858599"/>
<path d="M1.77058 12.8872L3.12955 13.2865L4.68818 13.206L5.80723 12.4459L7.00683 11.3672L7.88596 10.1676L9.00502 9.00824L10.0838 8.32875L11.5619 8.0083L10.562 9.76658L9.7231 10.6055L7.96482 13.0432L7.16621 14.2428L6.2468 14.882L4.9281 15.7612C4.9281 15.7612 3.76878 16.0011 3.64966 16.0414C3.53054 16.0816 2.57087 16.241 2.57087 16.241L1.73199 16.2007L1.09277 16.0011L1.69173 14.8015L1.77226 13.9224V12.8838L1.77058 12.8872Z" fill="#858599" fill-opacity="0.5"/>
<path d="M5.24702 5.97485L5.12621 6.89258L4.80745 7.53348L4.40814 8.13243L3.4082 8.73139L4.6078 9.33035L5.9265 9.85045L7.28547 10.1306L7.88443 10.1709L9.32394 9.17096L10.8423 7.81199L10.3222 7.6526L8.4448 7.45295L7.04555 6.93285L6.04562 6.41442L5.24702 5.97485Z" fill="#858599" fill-opacity="0.5"/>
<path d="M2.21392 16.5798C1.79113 16.5798 1.34653 16.5547 0.880114 16.506L0.000976562 16.4053L0.433838 16.1268L0.665362 15.8769C0.697239 15.8282 0.78952 15.6671 0.942194 15.3282V15.3249C1.18882 14.7947 1.27439 13.9072 1.19889 12.6875L1.14688 11.867L1.77939 12.3905C2.44042 12.9374 3.26923 13.0683 4.3111 12.7864C5.24225 12.5214 6.25561 11.6523 7.3193 10.2061C8.29743 8.79844 9.70506 7.8438 11.507 7.36732L11.6764 7.32202L12.8156 8.20955L11.7922 8.13573C11.6965 8.22801 11.6009 8.32699 11.5137 8.43605L11.4935 8.46121L11.4667 8.4847C10.8795 9.52826 10.0389 10.5584 9.19838 11.6858L9.18663 11.706C9.05745 11.9325 8.92491 12.1674 8.78062 12.4006V12.4123L8.73364 12.4878C7.87296 13.887 6.92671 14.9356 5.92007 15.6067C4.99563 16.2543 3.75242 16.5815 2.21392 16.5815V16.5798ZM1.48578 15.845C3.22225 15.9574 4.57619 15.6822 5.51572 15.0212L5.52243 15.0162C6.43345 14.4105 7.30085 13.4492 8.10114 12.1606C8.11624 12.117 8.13804 12.0801 8.16153 12.0516C8.30414 11.8217 8.43836 11.5852 8.56922 11.3553V11.352C9.13798 10.2614 9.7923 9.2917 10.5221 8.46121C9.43327 8.94105 8.5709 9.65409 7.90315 10.6154L7.89813 10.6238C6.72203 12.2261 5.61136 13.1572 4.50405 13.4726C3.52592 13.736 2.66691 13.6891 1.93877 13.3334C1.95387 14.3367 1.83978 15.09 1.59316 15.6218C1.55624 15.7057 1.52101 15.7795 1.48914 15.845H1.48578Z" fill="#858599"/>
<path d="M2.29475 16.5799C1.87196 16.5799 1.42735 16.5547 0.960938 16.5061L1.03476 15.7997C3.02792 16.0094 4.56138 15.7477 5.59487 15.0213L5.60326 15.0162C6.51428 14.4106 7.38167 13.4492 8.18196 12.1607C8.21048 12.0818 8.25577 12.0282 8.29604 11.9929L8.76078 12.5298C8.83124 12.4677 8.86145 12.3838 8.86648 12.3251L8.85976 12.4107L8.81447 12.4862C7.95379 13.8854 7.00753 14.934 6.00089 15.6051C5.07645 16.2527 3.83324 16.5799 2.29475 16.5799Z" fill="#858599"/>
<path d="M8.36647 9.76984C8.21547 9.77991 8.06447 9.7883 7.91347 9.79333C6.71724 9.83528 5.44048 9.5014 4.11003 8.80178C5.26264 8.05686 5.58309 7.20792 5.53779 6.44287C5.81294 6.66098 6.09983 6.85224 6.39847 7.01498C8.35472 8.11726 10.4217 8.29175 13.955 7.30356L13.7151 6.63413C10.358 7.56025 8.53927 7.40757 6.74241 6.39422C6.23237 6.11739 5.75925 5.74493 5.33646 5.29026L5.28781 5.23825L4.55966 4.44971L4.69724 5.46307C4.71737 5.54696 5.13513 7.52502 3.22754 8.48972L2.65039 8.78165L3.2074 9.11217C4.76771 10.04 6.28103 10.5097 7.70711 10.5097L8.36647 9.77152V9.76984Z" fill="#858599"/>
<path d="M17.3537 20.6702C17.1322 20.6702 16.9242 20.5326 16.8218 20.301C16.347 19.2172 15.9746 18.7659 15.4125 18.0831C14.8437 17.3935 13.6324 16.2258 13.4328 16.0564C13.166 15.8299 13.0905 15.5211 13.2499 15.3081C13.3304 15.2024 13.5687 14.9893 14.0586 15.3148C15.0518 15.9725 17.2564 17.9505 17.852 19.5393C18.0701 20.1165 17.8519 20.5091 17.56 20.6282C17.4912 20.6567 17.4224 20.6685 17.352 20.6685L17.3537 20.6702Z" fill="#858599"/>
<path d="M21.6405 20.6971C21.57 20.6971 21.4979 20.6836 21.4274 20.6534C21.1355 20.531 20.9241 20.135 21.1489 19.5612C21.7646 17.9808 23.9944 16.0312 24.996 15.3853C25.4909 15.0665 25.7258 15.2813 25.8046 15.3887C25.9624 15.6034 25.8835 15.9104 25.6134 16.1336C25.4121 16.3014 24.1856 17.4506 23.6085 18.1351C23.038 18.8113 22.6606 19.2575 22.1707 20.3363C22.0666 20.5645 21.8603 20.6987 21.6422 20.6987L21.6405 20.6971Z" fill="#858599"/>
<path d="M23.8298 3.36916C23.8449 2.54539 23.4439 1.8357 22.6269 1.24178C21.7964 0.6596 20.8049 0.365991 19.6522 0.357603C18.4996 0.349214 17.5114 0.632753 16.6977 1.21158C15.879 1.79543 15.4612 2.49673 15.4512 3.3138C15.4545 3.56882 15.4763 3.80202 15.5082 4.02013C18.5634 3.03697 21.2998 3.1175 23.7124 4.2634C23.7778 3.95805 23.8181 3.66109 23.8298 3.36748V3.36916Z" fill="#858599" fill-opacity="0.5"/>
<path d="M11.0557 19.9505L11.0406 19.9153C11.0003 19.823 10.9651 19.7291 10.9366 19.6368L10.851 19.3616L10.2856 19.3801L10.242 19.8549C10.2453 19.8733 10.2554 19.9186 10.2655 19.9992V20.016C10.2705 20.0445 10.2722 20.068 10.2772 20.0915C10.2856 20.3431 10.2101 20.5428 10.039 20.7189C9.87623 20.8917 9.66315 20.9689 9.38297 20.9572C9.03568 20.9437 8.91992 20.8045 8.86287 20.7005C8.7102 20.4253 8.70013 20.2777 8.70852 20.2122C8.73033 20.0327 8.76724 19.8431 8.81925 19.6519C8.89978 19.3532 8.83939 19.0059 8.63638 18.6217L8.42833 18.2275C8.34948 18.0782 8.28069 17.8902 8.22365 17.6688C8.18003 17.4826 8.19178 17.2594 8.25721 17.0027C8.31593 16.7762 8.44176 16.5984 8.64141 16.4574C8.84106 16.3232 9.0793 16.2746 9.36284 16.3115L9.38465 16.3148H9.40646C9.68497 16.3165 9.91314 16.3434 10.0876 16.3903C10.039 16.1185 10.0239 15.835 10.049 15.5464C9.86617 15.4693 9.68162 15.4156 9.49539 15.3904H9.48532L9.34774 15.3787C8.93334 15.3401 8.529 15.4323 8.14647 15.6538C7.75052 15.8853 7.48377 16.2276 7.35458 16.6722C7.24385 17.0598 7.23043 17.4591 7.31264 17.8567C7.3227 17.9171 7.33612 17.9876 7.35961 18.0547C7.42168 18.251 7.52403 18.4691 7.66496 18.704C7.87971 19.058 7.94515 19.1737 7.9636 19.2123L7.97031 19.2257C7.99715 19.2744 8.00219 19.3482 7.98373 19.4455L7.97702 19.4774C7.95688 19.5864 7.93676 19.6888 7.92837 19.7274C7.76059 20.1619 7.74381 20.5629 7.87636 20.9135C8.01058 21.286 8.24714 21.5578 8.58269 21.7256C8.77731 21.8212 9.00213 21.8816 9.25211 21.9068C9.38801 21.9202 9.53061 21.9219 9.67993 21.9135C10.1648 21.8883 10.5591 21.6585 10.8191 21.2541C11.0741 20.8699 11.1564 20.4438 11.0674 19.9891L11.0607 19.9505H11.0557Z" fill="#858599"/>
<path d="M31.8916 16.085C31.7607 15.6454 31.4889 15.3048 31.0829 15.0716H31.0813C30.7172 14.8636 30.328 14.778 29.9219 14.8166C29.9068 14.8166 29.8917 14.82 29.8766 14.8216L29.7424 14.8384H29.7307C29.4723 14.8804 29.2139 14.9777 28.9623 15.1236C28.9639 15.1438 28.9673 15.1656 28.9706 15.1857C28.9941 15.4424 28.9824 15.6958 28.9388 15.9424L29.0847 15.8837C29.271 15.8082 29.5243 15.7461 29.8582 15.6958L29.8766 15.6924C30.1317 15.6404 30.3514 15.6874 30.5662 15.8434C30.7927 16.0078 30.9454 16.2125 31.0326 16.4658C31.1047 16.7041 31.1148 16.9088 31.0645 17.09C31.0024 17.3165 30.9319 17.5178 30.8548 17.6872C30.7625 17.8819 30.6685 18.0714 30.5763 18.2443C30.437 18.5026 30.3867 18.7828 30.4286 19.0747C30.4638 19.3298 30.5008 19.5412 30.5427 19.7224C30.5729 19.8482 30.5544 20.0092 30.489 20.2005L30.4857 20.2089C30.432 20.38 30.1434 20.4723 29.9756 20.5126C29.5931 20.6032 29.422 20.4639 29.3196 20.3381C29.1451 20.1133 29.0629 19.87 29.068 19.5965L29.0747 19.5177C29.0831 19.4388 29.0914 19.3985 29.0948 19.3834L29.0831 18.8935L28.4556 18.9086L28.3885 19.1771C28.365 19.2694 28.3348 19.36 28.2962 19.4506L28.2794 19.4891L28.2727 19.5311C28.1989 19.9774 28.2912 20.4018 28.5445 20.7944L28.5512 20.8028C28.828 21.2021 29.224 21.4219 29.6954 21.4387C29.8213 21.4454 29.9437 21.442 30.0595 21.432C30.338 21.4068 30.5863 21.333 30.7994 21.2139C31.1131 21.0411 31.3363 20.7642 31.4671 20.3901C31.5913 20.0227 31.5661 19.6234 31.3933 19.2023L31.3514 18.9539L31.348 18.9355C31.3279 18.8466 31.3363 18.7593 31.3698 18.6721C31.4353 18.516 31.5242 18.3349 31.6332 18.1285C31.7758 17.8768 31.8681 17.6638 31.9184 17.4826C31.9436 17.402 31.9604 17.3316 31.9654 17.2611C32.0309 16.8668 32.0057 16.4726 31.8882 16.0884L31.8916 16.085Z" fill="#858599"/>
<path d="M24.1318 4.14939C24.1804 3.88095 24.2089 3.62761 24.219 3.37427C24.2358 2.43137 23.7811 1.61599 22.8651 0.94992C21.9809 0.329153 20.9122 0.010386 19.6891 0.000319559C18.4627 -0.0114247 17.399 0.300635 16.5249 0.921401C15.6105 1.57404 15.1407 2.37768 15.129 3.31051V3.3189C15.1307 3.50513 15.1424 3.69136 15.1659 3.88598C15.0803 3.98832 15.0334 4.10073 15.0283 4.22153V4.23495C15.0283 4.55037 15.0736 4.86578 15.1692 5.17113L15.1709 5.17952C15.3018 5.56541 15.5266 5.93283 15.8403 6.27173L15.9309 6.36905L16.7564 6.46132C17.461 6.87069 18.4023 7.09048 19.5599 7.11061C19.6102 7.11061 19.6606 7.11061 19.7092 7.11061C20.5632 7.11061 21.3098 7.00659 21.9306 6.8019L21.9473 6.7952C22.1805 6.7046 22.407 6.59554 22.6235 6.46971C23.2812 6.53179 23.7744 6.20798 24.0277 5.54863L24.0898 5.48152L24.0865 5.38756C24.1838 5.08892 24.3549 4.50339 24.1301 4.14939H24.1318ZM16.9359 1.50022C17.6842 0.968375 18.6069 0.703294 19.6824 0.711683C20.7578 0.720071 21.6906 0.996899 22.4507 1.52874C23.1738 2.05388 23.5194 2.65451 23.5076 3.35413C23.5026 3.48332 23.4925 3.61586 23.4741 3.75344C22.2527 3.24173 20.9491 2.98671 19.5683 2.98671C18.3821 2.98671 17.1406 3.17629 15.8487 3.55379C15.8437 3.47326 15.8404 3.39272 15.8387 3.31387C15.8487 2.61257 16.2078 2.01864 16.9359 1.50022ZM23.5009 4.83558L23.261 5.35401C23.261 5.35401 22.9473 5.807 22.605 5.74996L22.4725 5.72815L22.3584 5.79861C22.1504 5.9278 21.9289 6.03853 21.699 6.12745C21.1202 6.31704 20.4038 6.40764 19.5717 6.39589C18.5415 6.37576 17.7161 6.1912 17.1171 5.84391C17.0987 5.83217 17.0802 5.82042 17.0634 5.81203L16.993 5.76841L16.2782 5.68956C16.1423 5.53017 15.9494 5.19462 15.9494 5.19462L15.7531 4.62586C15.7531 4.62586 15.743 4.38427 15.7414 4.32891C18.6338 3.41789 21.2544 3.49339 23.5311 4.55372C23.5345 4.59567 23.5009 4.83558 23.5009 4.83558ZM23.714 5.36407V5.35904L23.719 5.36407H23.714Z" fill="#858599"/>
</svg>
